<svg width="1043" height="1182" viewBox="0 0 1043 1182" fill="none" xmlns="http://www.w3.org/2000/svg">
<path d="M1040.84 879.84L521.94 1181.52H519.07L0.48999 879V303L522 0.529999L1041.51 303.99C1042.2 361.15 1042.26 418.37 1042.05 475.54C1042.04 478.63 1040.97 481.36 1040.95 484.44C1040.48 616.23 1041.53 748.05 1040.83 879.83L1040.84 879.84ZM740.99 529.99C717.93 444.01 651.49 375.45 565.22 352.28C399.95 307.9 237.33 437.54 219.13 601.62C211.38 671.48 228.98 739.96 264.83 799.67L287.99 835.99C252.48 720.81 258.33 588.48 339.49 493.98C450.49 364.73 630.42 372.63 728.82 510.68L741 529.99H740.99ZM504.01 656C503.15 656.94 507.15 661.56 507.97 662.53C548.76 710.65 622.04 684.23 643.48 630.99C667.36 571.69 634.05 507.34 577.67 482.83C504.41 450.98 419.88 488.71 381.82 555.33C311.82 677.87 404.4 817.66 535.64 834.86C691.89 855.33 821.4 720.91 824.04 569.55C824.84 523.82 813.66 480.26 794.98 439.01C793.1 438.81 794.17 441.11 794.28 442.21C801.24 515.04 784.98 597.43 746.41 659.92C690.47 750.56 559.23 819.39 461.27 750.23C362.37 680.4 401.18 521.17 519.62 506.14C586.48 497.65 647.15 553.4 626.5 622.02C610.37 675.64 545.46 693.71 504 656.01L504.01 656Z" fill="black"/>
<path d="M504.01 656C545.47 693.7 610.38 675.63 626.51 622.01C647.16 553.39 586.49 497.64 519.63 506.13C401.19 521.16 362.38 680.39 461.28 750.22C559.23 819.38 690.47 750.55 746.42 659.91C784.99 597.43 801.24 515.03 794.29 442.2C794.18 441.1 793.11 438.79 794.99 439C813.67 480.25 824.85 523.81 824.05 569.54C821.41 720.9 691.89 855.32 535.65 834.85C404.41 817.65 311.84 677.86 381.83 555.32C419.89 488.7 504.42 450.97 577.68 482.82C634.05 507.33 667.37 571.67 643.49 630.98C622.05 684.23 548.77 710.64 507.98 662.52C507.16 661.55 503.15 656.93 504.02 655.99L504.01 656Z" fill="#76B900"/>
<path d="M740.99 529.99L728.81 510.68C630.41 372.63 450.48 364.73 339.48 493.98C258.33 588.48 252.48 720.81 287.98 835.99L264.82 799.67C228.97 739.96 211.37 671.48 219.12 601.62C237.32 437.54 399.94 307.9 565.21 352.28C651.48 375.45 717.93 444.02 740.98 529.99H740.99Z" fill="#76B900"/>
</svg>
